PathFileType	4	(X/Y/Z)	C:/Users/opensim2020/Desktop/walking_exp_matlab/subject06_walking12_straigt_03.trc	
DataRate	CameraRate	NumFrames	NumMarkers	Units	OrigDataRate	OrigDataStartFrame	OrigNumFrames	
100.00	100.00	5	48	mm	100.00	2095	184	
Frame#	Time	LFHD			RFHD			LBHD			RBHD			C7			T10			CLAV			STRN			RBAK			LSHO			LUPA			LELB			LFRM			LWRA			LWRB			LFIN			RSHO			RUPA			RELB			RFRM			RWRA			RWRB			RFIN			LASI			RASI			LPSI			RPSI			LTHI			LKNE			LTIB			LANK			LHEE			LTOE			RTHI			RKNE			RTIB			RANK			RHEE			RTOE			*39			*40			*41			*42			*43			*44			*45			*46			*47			
		X1	Y1	Z1	X2	Y2	Z2	X3	Y3	Z3	X4	Y4	Z4	X5	Y5	Z5	X6	Y6	Z6	X7	Y7	Z7	X8	Y8	Z8	X9	Y9	Z9	X10	Y10	Z10	X11	Y11	Z11	X12	Y12	Z12	X13	Y13	Z13	X14	Y14	Z14	X15	Y15	Z15	X16	Y16	Z16	X17	Y17	Z17	X18	Y18	Z18	X19	Y19	Z19	X20	Y20	Z20	X21	Y21	Z21	X22	Y22	Z22	X23	Y23	Z23	X24	Y24	Z24	X25	Y25	Z25	X26	Y26	Z26	X27	Y27	Z27	X28	Y28	Z28	X29	Y29	Z29	X30	Y30	Z30	X31	Y31	Z31	X32	Y32	Z32	X33	Y33	Z33	X34	Y34	Z34	X35	Y35	Z35	X36	Y36	Z36	X37	Y37	Z37	X38	Y38	Z38	X39	Y39	Z39	X40	Y40	Z40	X41	Y41	Z41	X42	Y42	Z42	X43	Y43	Z43	X44	Y44	Z44	X45	Y45	Z45	X46	Y46	Z46	X47	Y47	Z47	X48	Y48	Z48	

24	0.230	-1054.76709	-536.60693	1637.43896	-924.60583	-549.12317	1619.93335	-1070.02966	-671.95251	1592.51770	-941.48175	-682.77582	1580.30896	-1018.32489	-687.64124	1429.25000	-1016.16266	-730.81342	1100.19604	-1014.08112	-580.19781	1346.97119	-1026.58643	-545.79956	1171.25134	-947.47168	-767.79059	1258.33887	-1176.02844	-626.10541	1387.24622	-1256.35181	-582.25867	1194.70813	-1274.93982	-545.41632	1088.93542	-1290.62488	-429.04587	996.74921	-1238.58789	-308.69464	966.40277	-1276.50586	-341.32693	915.95178	-1273.71912	-252.21069	899.29047	-853.57043	-631.37476	1378.15015	-774.73315	-709.33820	1190.13330	-765.80176	-724.82373	1067.84985	-749.62579	-740.75116	947.99304	-777.75427	-718.22583	797.44196	-741.64594	-773.25409	813.47339	-738.84473	-758.32758	730.01367	-1121.40906	-554.83752	932.25458	-899.50720	-557.07959	944.29614	-1092.37000	-711.98077	968.39624	-923.85309	-707.83197	969.76086	-1174.49512	-683.71613	631.70697	-1156.07800	-731.67883	473.12534	-1148.35669	-859.92548	246.44624	-1104.26794	-927.24066	86.56749	-1057.51440	-969.44116	82.54011	-1110.47229	-794.54669	32.44403	-826.82062	-551.94580	620.55817	-853.29474	-504.23096	504.95407	-850.31006	-462.85803	247.52147	-886.50159	-399.43729	69.24588	-936.49408	-421.39508	35.67564	-872.73413	-241.10350	76.92560	-1002.86078	-639.02179	1679.64819																								 
25	0.240	-1053.52515	-527.25824	1637.26855	-923.39612	-539.47803	1619.63782	-1068.57544	-662.51758	1591.94958	-940.11847	-673.04150	1579.71655	-1016.90479	-677.77899	1428.69592	-1014.91650	-720.15710	1099.70203	-1012.87836	-570.00806	1346.61340	-1025.45654	-535.35425	1170.86829	-946.20020	-757.31177	1257.63660	-1174.75366	-616.48956	1386.82568	-1254.83862	-573.47687	1194.02954	-1273.04590	-537.38348	1088.09119	-1288.60217	-421.00964	995.65588	-1236.48608	-300.79013	965.47858	-1274.16980	-333.34464	914.94244	-1271.17993	-244.35576	898.09717	-852.25031	-621.11536	1377.65686	-773.64716	-698.91931	1189.49048	-764.69629	-713.90405	1067.14844	-748.66638	-729.46661	947.21942	-776.87616	-706.34131	796.77899	-740.95111	-761.55621	812.43115	-738.27051	-746.46613	729.28455	-1120.33728	-544.40576	931.63000	-898.26587	-546.17896	943.91522	-1091.19824	-701.25513	967.80518	-922.69562	-697.03162	969.83356	-1173.64575	-673.90131	631.07159	-1155.51941	-722.23682	472.60806	-1148.65125	-854.89368	248.34064	-1105.29236	-925.60559	89.77452	-1058.69861	-968.03729	86.64149	-1110.70020	-793.65747	32.72966	-826.17438	-540.33740	621.32318	-852.91235	-492.42401	506.10074	-850.16425	-455.31973	246.33209	-887.35333	-397.43481	66.53558	-937.02759	-420.58508	33.57014	-874.48621	-239.43922	71.11176	-1001.39905	-629.69232	1679.12817																								 
26	0.250	-1052.27832	-517.87750	1637.28992	-922.01257	-529.85510	1619.56628	-1067.06055	-653.04327	1591.48499	-938.54968	-663.30023	1579.19604	-1015.39624	-667.83368	1428.30139	-1013.40228	-709.23895	1099.29016	-1011.55835	-559.77362	1346.40247	-1024.23193	-524.65826	1170.74561	-944.77765	-746.75690	1257.05969	-1173.27075	-606.64832	1386.69092	-1253.22559	-564.63458	1193.45776	-1271.20911	-529.29169	1087.20911	-1286.63013	-413.43130	994.30750	-1234.37048	-293.18039	964.04004	-1272.00537	-325.92242	913.44513	-1268.72791	-236.89871	896.23218	-850.86652	-610.72534	1377.32471	-772.33466	-688.03925	1188.95361	-763.48889	-702.71039	1066.51477	-747.58313	-717.79980	946.52502	-775.96252	-694.01361	796.24042	-740.05225	-749.33435	811.62585	-737.42767	-733.68420	728.47101	-1119.40942	-533.92548	931.22919	-897.14850	-534.48505	944.18427	-1089.87756	-690.48944	967.51123	-921.46320	-685.62830	969.92200	-1172.63977	-663.80414	630.52228	-1154.89014	-712.27441	472.15366	-1148.82690	-849.20013	250.45331	-1106.20239	-923.61963	93.34114	-1059.78284	-966.24365	91.18547	-1110.80432	-792.91852	33.00403	-825.77454	-528.40521	622.28735	-853.09698	-480.60513	507.22281	-850.46472	-448.55719	245.16832	-888.65906	-395.82855	64.63897	-938.42950	-419.16327	33.63956	-876.31354	-237.55231	63.42047	-999.93329	-620.35889	1678.75391																								 
27	0.260	-1051.09888	-508.53088	1637.63171	-920.64740	-520.08893	1619.97998	-1065.41028	-643.52515	1591.33105	-936.79510	-653.54993	1578.98462	-1013.66528	-658.03033	1428.22864	-1011.92834	-698.04578	1099.04443	-1010.11438	-549.43561	1346.66321	-1022.93268	-513.91034	1170.97949	-943.12970	-736.31152	1256.56030	-1171.85352	-597.01636	1386.51245	-1251.56592	-555.87244	1193.01746	-1269.40515	-521.55133	1086.34314	-1284.60791	-406.11404	992.78217	-1232.38403	-286.02795	962.12390	-1269.80579	-318.99243	911.62128	-1266.38599	-230.04167	893.77759	-849.25171	-600.26886	1377.25708	-770.84290	-676.89032	1188.45654	-762.11908	-691.24036	1065.96655	-746.40326	-705.83295	945.90222	-775.00323	-681.35919	795.82654	-739.08978	-736.75946	810.92163	-736.62177	-720.45813	727.69696	-1118.54480	-523.14008	931.11871	-896.01569	-522.94427	944.38354	-1088.52380	-679.80658	967.27765	-919.60925	-674.52966	970.37769	-1171.56250	-653.29657	630.06329	-1153.79688	-701.81335	471.71515	-1148.73279	-843.13141	252.83820	-1107.23352	-921.09100	97.37234	-1061.09143	-963.92322	96.28048	-1111.14868	-793.38953	32.77090	-826.40253	-516.18127	623.36255	-854.40985	-469.53259	508.41754	-850.99750	-441.61807	244.96919	-887.78619	-391.30460	65.48289	-937.64996	-415.73398	36.13993	-876.77014	-232.24774	56.56970	-998.40204	-611.07404	1678.70581																								 
28	0.270	-1049.81567	-499.26794	1638.72839	-919.21338	-510.27454	1621.17444	-1063.70068	-633.97357	1591.78882	-935.01941	-643.49670	1579.39026	-1011.82098	-647.97473	1428.83618	-1011.02094	-687.05493	1099.31958	-1008.59631	-539.25104	1347.56189	-1021.72601	-503.63315	1171.68640	-941.35999	-725.84515	1256.35803	-1170.53552	-587.13629	1387.00195	-1249.77917	-547.04919	1192.63916	-1267.63464	-513.81030	1085.55493	-1282.70032	-399.23529	991.08392	-1230.42334	-279.19241	959.72943	-1267.77783	-312.68341	909.38049	-1264.09778	-223.87852	890.70355	-847.50189	-589.84711	1377.52368	-769.12451	-665.61011	1188.20935	-760.57758	-679.51477	1065.62280	-745.15344	-693.51019	945.41547	-774.04321	-668.34619	795.60278	-737.98584	-723.81024	810.44550	-735.62207	-707.44299	727.50232	-1117.69775	-512.48254	931.32458	-895.04596	-511.31070	945.16663	-1087.23901	-668.95093	967.42059	-918.12408	-663.20068	971.52106	-1170.26367	-642.30731	629.81659	-1152.33875	-690.51318	471.47409	-1148.28235	-836.08270	255.57240	-1108.09949	-917.97406	102.09436	-1062.25647	-961.06042	102.35402	-1111.02734	-792.79938	32.94802	-826.60864	-504.79202	624.74792	-854.70697	-459.37573	510.06406	-848.01984	-432.49454	246.55659	-885.48480	-384.89752	65.90368	-934.37262	-413.06946	38.28634	-877.11890	-227.24686	52.96764	-996.70398	-601.76392	1679.35254																								 
